# xmcd CD database file
#
# Track frame offsets:
#	150
#	16320
#	33570
#	47475
#	63503
#	76250
#	92205
#	111445
#	125030
#	138055
#	149802
#	162335
#	174477
#	189865
#	205950
#	222932
#	236397
#	256605
#	270225
#	284405
#
# Disc length: 3996 seconds
#
# Revision: 0
# Processed by: cddbd v1.5.2PL0 Copyright (c) Steve Scherf et al.
# Submitted via: CDex 1.70beta2
#
DISCID=1e0f9a14
DTITLE=Various Artist - Lieder der Prärie
DYEAR=1998
DGENRE=Country
TTITLE0=Astor, Tom - Junger Adler (Ein Lied Für (M)Einen Sohn
TTITLE1=Feller, Linda - Du Bist Das Salz In Meiner Suppe
TTITLE2=Hill, Jonny - Suchst Du Gold
TTITLE3=Truck Stop - Ich Möcht' So Gern Dave Dudley Hör'n
TTITLE4=Country Rose and Ralf Paulsen - Hallo Country Rose
TTITLE5=Haper, Tex - Auch Ein Trucker Hat Ein Herz
TTITLE6=Larry Schuba and Western Union - Countrymusicfieber
TTITLE7=Mccollins, Iris - Das Geht Ganz Tief Rein
TTITLE8=Mike Herman and Booze Company - Verliebt In Country
TTITLE9=Greyhounds - Kättschn Quetschn
TTITLE10=Truck Stop - Der Wilde, Wilde Westen
TTITLE11=Astor, Tom - Hallo, Guten Morgen Deutschland
TTITLE12=Gabriel, Gunter - Truck Stop, Tom Astor Und Ich
TTITLE13=Feller, Linda - Andre Mütter Haben Auch Ein Schönes Kind
TTITLE14=Larry Schuba and Western Union - Danke
TTITLE15=Dagmar - The Lady Of Country - Lass Mich Damit Bloss In Ruhe
TTITLE16=Hill, Jonny - Hallo Teddybär
TTITLE17=Frank Baum and Country Green - Hallo Nachbar, Guten Morgen
TTITLE18=Hanna and Daana - It's Countrytime In Germany
TTITLE19=Joe Hodgkins Boss Band - Nimm Dir Zeit Für Deine Freunde
EXTD=YEAR: 1998
EXTT0=
EXTT1=
EXTT2=
EXTT3=
EXTT4=
EXTT5=
EXTT6=
EXTT7=
EXTT8=
EXTT9=
EXTT10=
EXTT11=
EXTT12=
EXTT13=
EXTT14=
EXTT15=
EXTT16=
EXTT17=
EXTT18=
EXTT19=
PLAYORDER=
